<?xml version="1.0" standalone="no"?>
<!DOCTYPE svg PUBLIC "-//W3C//DTD SVG 20010904//EN"
 "http://www.w3.org/TR/2001/REC-SVG-20010904/DTD/svg10.dtd">
<svg version="1.0" xmlns="http://www.w3.org/2000/svg"
 width="980.000000pt" height="980.000000pt" viewBox="0 0 980.000000 980.000000"
 preserveAspectRatio="xMidYMid meet">
<metadata>
Created by potrace 1.11, written by Peter Selinger 2001-2013
</metadata>
<g transform="translate(0.000000,980.000000) scale(0.100000,-0.100000)"
fill="#000000" stroke="none">
<path d="M4439 9796 c-2 -2 -31 -7 -64 -10 -61 -6 -115 -12 -170 -21 -16 -2
-55 -7 -85 -10 -30 -4 -58 -9 -61 -11 -4 -2 -24 -6 -44 -10 -21 -3 -46 -8 -56
-10 -52 -11 -67 -14 -99 -20 -122 -22 -517 -134 -619 -176 -14 -6 -30 -12 -36
-14 -20 -5 -141 -53 -190 -75 -27 -12 -52 -23 -55 -24 -121 -45 -549 -264
-558 -287 -2 -4 -9 -8 -15 -8 -12 0 -140 -81 -145 -92 -2 -5 -8 -8 -13 -8 -10
0 -126 -76 -147 -97 -7 -7 -16 -13 -20 -13 -6 0 -20 -10 -78 -58 -5 -5 -29
-22 -52 -37 -23 -15 -42 -32 -42 -36 0 -5 -6 -9 -12 -9 -7 0 -32 -17 -54 -38
-23 -20 -61 -53 -85 -72 -83 -67 -125 -106 -309 -290 -180 -180 -233 -236
-295 -314 -16 -21 -39 -47 -50 -60 -11 -12 -29 -35 -40 -50 -11 -16 -25 -33
-30 -40 -31 -33 -105 -136 -105 -144 0 -5 -7 -12 -15 -16 -8 -3 -15 -12 -15
-21 0 -8 -4 -15 -8 -15 -5 0 -15 -12 -23 -27 -8 -16 -22 -37 -31 -47 -10 -11
-18 -24 -18 -28 0 -5 -9 -18 -20 -30 -11 -12 -20 -28 -20 -35 0 -7 -3 -13 -8
-13 -4 0 -16 -17 -27 -37 -11 -21 -22 -40 -25 -43 -12 -10 -100 -167 -100
-178 0 -5 -4 -12 -9 -14 -8 -3 -201 -388 -205 -411 -2 -7 -9 -25 -16 -42 -7
-16 -19 -45 -27 -62 -66 -154 -193 -547 -217 -673 -2 -14 -11 -52 -20 -85 -18
-66 -53 -246 -61 -313 -3 -24 -7 -53 -10 -65 -3 -12 -7 -44 -10 -72 -3 -27 -9
-77 -13 -110 -9 -79 -9 -971 1 -1055 8 -70 14 -117 21 -165 3 -16 8 -52 11
-80 4 -27 10 -66 15 -85 5 -19 11 -51 14 -70 3 -19 8 -46 11 -60 3 -14 8 -36
11 -50 28 -143 137 -526 177 -620 6 -14 11 -27 11 -30 1 -3 7 -18 13 -35 25
-61 36 -90 37 -95 16 -74 328 -697 365 -730 3 -3 15 -21 25 -40 11 -19 24 -39
28 -45 4 -5 37 -55 74 -110 36 -55 70 -101 75 -103 5 -2 9 -8 9 -13 0 -6 5
-15 10 -22 10 -12 68 -88 120 -157 25 -34 60 -76 154 -185 68 -79 408 -419
472 -473 28 -23 62 -52 76 -64 59 -52 127 -108 132 -108 3 0 15 -8 25 -18 24
-21 29 -25 111 -85 36 -26 74 -54 85 -63 11 -8 54 -36 95 -62 41 -25 77 -49
80 -52 3 -4 21 -15 40 -26 19 -10 37 -22 40 -25 14 -15 275 -157 420 -227 142
-69 382 -170 443 -187 4 -2 9 -4 12 -5 3 -1 8 -3 13 -5 4 -1 14 -5 22 -8 87
-36 411 -131 515 -151 6 -1 19 -5 30 -9 11 -3 37 -8 59 -12 21 -3 42 -7 46
-10 4 -2 25 -7 46 -10 21 -2 50 -7 64 -10 14 -3 54 -11 90 -16 107 -17 169
-25 260 -36 86 -11 977 -10 1060 0 36 5 83 10 105 12 38 4 97 13 140 21 11 2
40 7 65 10 25 3 47 8 50 9 3 2 26 6 50 10 25 3 59 10 75 15 17 5 44 12 60 15
64 12 81 16 115 25 19 5 38 10 42 10 4 1 29 8 55 16 27 8 59 17 72 20 31 6
303 95 316 102 6 4 15 7 20 8 38 6 302 122 464 202 247 124 265 133 271 142 3
4 15 10 27 14 13 4 29 13 36 19 7 7 28 21 47 31 54 29 175 109 178 118 2 4 10
8 18 8 8 0 14 4 14 9 0 5 8 11 18 15 16 5 96 60 137 94 11 9 39 30 63 46 23
16 42 33 42 37 0 5 6 9 14 9 8 0 16 3 18 8 2 4 26 25 53 46 28 22 61 50 75 62
14 13 45 40 70 61 65 55 407 399 462 463 67 78 80 95 108 130 14 18 31 39 39
47 8 8 50 63 93 121 43 59 87 118 98 132 11 14 20 30 20 37 0 6 4 13 9 15 11
4 121 174 121 187 0 5 4 11 8 13 21 8 307 552 316 601 2 7 15 38 29 71 15 32
27 62 27 66 0 4 11 33 25 64 14 31 22 56 19 56 -4 0 -2 6 4 12 9 12 96 272
107 321 2 12 16 65 30 117 35 126 61 241 80 359 3 19 7 37 9 40 2 3 7 31 10
61 3 30 8 66 11 79 2 12 7 44 10 69 3 25 8 73 13 107 10 80 9 973 -1 1055 -15
123 -18 145 -22 170 -2 14 -7 48 -10 75 -4 28 -11 70 -16 95 -6 25 -13 63 -16
85 -3 22 -9 48 -14 58 -6 9 -8 17 -5 17 2 0 0 17 -5 38 -5 20 -12 46 -14 57
-3 11 -12 47 -20 80 -9 33 -18 71 -21 84 -3 14 -7 28 -10 33 -3 5 -8 21 -10
36 -6 33 -90 285 -132 397 -70 187 -286 640 -327 685 -7 8 -19 26 -25 40 -11
25 -22 45 -51 90 -134 206 -169 259 -183 272 -9 9 -16 19 -16 23 0 9 -101 139
-111 143 -5 2 -9 8 -9 13 0 8 -6 17 -52 70 -9 11 -31 39 -50 61 -18 23 -51 62
-73 87 -55 63 -389 396 -451 451 -95 83 -156 135 -173 144 -9 5 -20 15 -24 23
-4 7 -15 13 -22 13 -8 0 -15 4 -15 8 0 8 -123 102 -145 111 -5 2 -16 10 -23
17 -21 21 -269 184 -280 184 -6 0 -12 4 -14 8 -9 22 -551 305 -628 327 -14 4
-43 16 -65 26 -75 33 -165 68 -165 62 0 -3 -6 -1 -12 5 -14 11 -337 117 -384
126 -16 3 -82 19 -146 35 -64 16 -130 32 -145 35 -15 2 -64 11 -108 20 -44 8
-98 18 -120 21 -22 2 -56 7 -75 10 -19 3 -55 8 -80 11 -25 3 -61 8 -80 11 -40
7 -994 16 -1001 9z m821 -779 c14 -3 57 -8 95 -12 39 -3 79 -8 90 -10 11 -2
42 -7 69 -10 27 -3 52 -8 55 -9 3 -2 29 -6 56 -10 56 -7 64 -8 156 -30 37 -8
78 -17 90 -20 13 -3 39 -9 57 -15 18 -5 33 -10 35 -9 1 0 22 -5 47 -12 25 -7
50 -13 55 -15 6 -1 17 -5 25 -8 8 -3 58 -19 111 -36 52 -16 106 -34 120 -39
13 -6 44 -18 69 -27 25 -10 69 -28 98 -41 29 -13 55 -24 57 -24 15 0 307 -141
315 -152 3 -4 21 -15 40 -23 44 -21 83 -43 137 -78 24 -15 45 -27 48 -27 3 0
11 -5 18 -10 26 -22 190 -130 197 -130 5 0 10 -4 12 -8 2 -5 35 -32 73 -60 80
-60 116 -88 150 -117 75 -65 99 -86 165 -145 121 -109 216 -207 332 -344 18
-22 43 -50 56 -62 12 -13 22 -26 22 -29 0 -5 58 -80 111 -143 10 -12 19 -25
19 -28 0 -3 11 -20 25 -38 14 -17 29 -35 33 -41 14 -19 135 -210 155 -245 61
-108 157 -283 157 -287 0 -2 18 -43 41 -91 53 -113 54 -117 82 -187 68 -168
170 -496 193 -615 5 -26 19 -95 30 -145 4 -16 8 -37 9 -45 2 -18 17 -109 21
-130 2 -8 6 -37 9 -65 4 -27 8 -63 10 -80 28 -206 27 -710 0 -930 -2 -16 -6
-53 -10 -81 -3 -29 -8 -62 -10 -75 -3 -13 -8 -42 -11 -64 -9 -58 -10 -67 -17
-95 -4 -14 -9 -38 -11 -55 -3 -16 -7 -39 -10 -50 -3 -11 -13 -51 -22 -90 -43
-186 -145 -497 -214 -650 -113 -252 -192 -400 -338 -632 -32 -51 -104 -156
-112 -163 -3 -3 -17 -21 -30 -40 -13 -19 -35 -49 -49 -66 -14 -16 -37 -45 -51
-64 -100 -136 -341 -386 -510 -530 -140 -119 -157 -132 -260 -208 -36 -26 -66
-50 -68 -54 -2 -5 -7 -8 -12 -8 -11 0 -134 -82 -138 -92 -2 -5 -7 -8 -12 -8
-4 0 -37 -18 -71 -40 -35 -22 -71 -43 -79 -47 -8 -4 -17 -9 -20 -12 -3 -3 -25
-16 -50 -29 -25 -13 -79 -40 -120 -62 -184 -94 -391 -180 -585 -243 -87 -29
-325 -96 -365 -103 -14 -2 -52 -11 -85 -19 -33 -8 -78 -17 -100 -20 -22 -3
-51 -7 -65 -10 -14 -3 -41 -7 -60 -10 -19 -2 -55 -7 -80 -10 -25 -4 -59 -8
-75 -10 -106 -14 -241 -20 -455 -20 -260 0 -398 8 -555 30 -22 4 -56 8 -75 10
-34 4 -57 9 -110 20 -14 3 -39 7 -57 9 -18 3 -41 7 -52 11 -11 3 -42 10 -68
15 -169 31 -509 139 -681 216 -29 13 -57 24 -62 24 -5 0 -25 9 -44 19 -19 11
-58 30 -88 43 -61 26 -261 134 -362 196 -37 23 -72 42 -76 42 -5 0 -10 3 -12
8 -3 7 -114 83 -133 91 -5 2 -15 9 -21 15 -7 6 -24 20 -40 31 -15 11 -49 37
-76 58 -26 20 -52 37 -58 37 -5 0 -10 4 -10 8 0 5 -30 33 -68 62 -101 82 -106
87 -253 226 -56 53 -157 161 -241 258 -15 17 -59 72 -99 121 -39 50 -79 99
-88 110 -10 12 -20 29 -24 38 -3 9 -11 17 -17 17 -5 0 -10 6 -10 13 0 7 -8 22
-17 33 -24 26 -80 111 -144 219 -30 50 -56 92 -59 95 -3 3 -15 25 -27 50 -13
25 -35 68 -50 95 -24 44 -80 160 -129 270 -75 167 -208 579 -230 710 -3 17 -9
44 -14 60 -10 36 -21 92 -34 180 -3 22 -8 51 -11 65 -3 14 -8 48 -11 75 -3 28
-7 64 -9 80 -14 106 -20 242 -20 465 0 259 5 356 30 540 3 25 7 59 9 75 2 17
7 41 10 55 3 14 8 41 10 60 2 19 7 46 10 60 3 14 8 36 11 50 2 14 9 43 14 65
5 22 12 51 15 65 10 47 49 195 59 220 3 8 20 60 37 115 17 55 35 109 40 120 5
11 30 72 55 135 26 63 54 131 63 150 9 19 17 37 17 40 1 8 100 205 106 210 3
3 23 37 44 75 58 108 59 108 83 142 12 17 22 34 22 37 0 3 24 39 53 81 28 41
57 83 62 92 11 19 24 37 40 56 6 7 40 50 75 97 36 47 68 87 71 90 4 3 23 25
44 50 69 83 169 192 244 264 128 122 159 151 257 233 73 61 272 213 279 213 3
0 35 22 73 48 37 27 72 51 77 53 15 6 159 93 165 99 3 3 25 15 50 28 25 12 70
36 100 52 265 140 756 320 975 356 17 3 37 7 45 10 8 3 29 8 45 10 27 4 80 14
155 29 26 5 50 9 130 19 91 12 117 15 200 22 47 3 87 8 89 10 6 5 593 -3 621
-9z"/>
<path d="M3379 6925 c-2 -1 -31 -5 -64 -9 -64 -6 -96 -11 -160 -27 -22 -5 -50
-12 -63 -15 -83 -17 -275 -115 -362 -182 -67 -53 -211 -198 -249 -252 -108
-154 -195 -353 -216 -498 -2 -15 -7 -45 -10 -67 -13 -83 -7 -288 10 -375 3
-14 8 -41 11 -60 10 -66 65 -215 109 -298 82 -154 226 -314 363 -404 31 -21
62 -38 69 -38 7 0 13 -4 13 -9 0 -5 10 -13 23 -16 12 -4 40 -15 63 -25 38 -17
124 -45 175 -56 60 -13 76 -15 124 -18 27 -2 66 -7 85 -10 19 -4 46 -9 60 -10
60 -9 90 -20 122 -46 30 -25 33 -33 32 -76 -2 -60 -45 -159 -94 -215 -8 -9
-23 -27 -33 -40 -49 -65 -78 -97 -148 -167 -86 -87 -120 -116 -251 -213 -51
-38 -97 -72 -103 -76 -5 -5 -27 -17 -48 -28 -21 -11 -46 -27 -56 -35 -9 -8
-41 -28 -71 -44 -30 -16 -57 -32 -60 -35 -3 -3 -21 -14 -40 -23 -19 -10 -66
-35 -105 -57 -38 -22 -86 -47 -105 -57 -60 -31 -156 -137 -178 -196 -38 -104
-16 -222 56 -293 78 -77 129 -97 240 -94 48 1 102 6 121 11 34 10 55 15 101
24 13 3 30 10 37 16 7 6 13 8 13 5 0 -19 420 189 450 222 3 4 22 15 43 26 21
11 47 28 57 38 11 9 22 17 25 17 4 0 32 18 63 40 31 22 65 46 75 53 11 6 27
19 37 27 10 8 28 22 41 30 12 8 30 22 40 31 9 9 24 21 32 25 16 9 90 72 166
139 102 91 277 272 346 358 17 21 40 50 53 65 34 41 36 43 101 135 34 47 61
90 61 96 0 6 4 11 8 11 5 0 14 10 21 23 6 12 19 34 29 49 51 79 199 364 206
399 2 8 8 28 15 44 50 120 99 300 117 425 3 19 7 49 10 65 10 55 12 349 3 405
-22 138 -28 167 -41 215 -7 22 -12 43 -14 48 -1 4 -2 8 -4 10 -1 1 -3 10 -5
20 -2 10 -7 26 -11 35 -4 9 -8 22 -9 28 -9 41 -145 314 -157 314 -4 0 -8 5 -8
10 0 37 -310 370 -345 370 -7 0 -15 4 -17 8 -12 30 -203 131 -323 170 -84 28
-111 34 -205 48 -43 6 -267 14 -271 9z"/>
<path d="M6349 6925 c-2 -1 -29 -5 -59 -9 -121 -12 -204 -31 -295 -66 -24 -9
-181 -86 -212 -104 -88 -50 -269 -220 -322 -301 -14 -22 -31 -45 -37 -52 -6
-6 -32 -52 -58 -102 -59 -114 -112 -276 -130 -394 -12 -83 -14 -282 -2 -347 2
-14 7 -45 10 -70 8 -52 30 -133 57 -208 24 -67 110 -232 121 -232 4 0 8 -6 8
-12 0 -7 13 -29 28 -48 45 -59 223 -230 238 -230 8 0 14 -4 14 -9 0 -14 216
-116 275 -131 89 -21 187 -38 225 -38 38 1 117 -12 160 -26 110 -35 133 -80
99 -184 -13 -39 -75 -143 -104 -176 -6 -6 -28 -33 -50 -60 -53 -66 -169 -182
-225 -226 -25 -19 -47 -37 -50 -41 -6 -8 -103 -76 -195 -137 -38 -26 -71 -50
-73 -54 -2 -5 -8 -8 -13 -8 -5 0 -38 -17 -72 -38 -128 -79 -169 -102 -177
-102 -5 0 -15 -6 -22 -13 -7 -7 -32 -21 -55 -31 -24 -11 -43 -23 -43 -28 0 -4
-7 -8 -15 -8 -20 0 -148 -127 -171 -170 -29 -55 -29 -183 -1 -242 24 -50 84
-118 105 -118 6 0 12 -4 12 -10 0 -22 112 -43 199 -37 106 7 124 11 233 47 93
31 308 129 308 140 0 3 16 12 35 20 19 8 35 17 35 22 0 4 5 8 12 8 10 0 156
86 168 99 3 4 17 12 33 20 15 8 27 18 27 23 0 4 5 8 10 8 15 0 130 82 130 92
0 4 6 8 13 8 6 0 29 15 49 33 21 17 49 41 64 52 114 86 327 289 442 421 24 27
52 58 61 69 10 11 48 61 85 110 36 50 70 95 75 101 40 49 146 227 220 369 29
54 93 197 95 210 1 5 4 15 7 20 5 8 30 76 34 95 1 3 4 12 8 20 7 19 26 82 32
106 16 68 37 164 41 194 3 19 7 41 9 48 8 23 20 182 20 262 0 118 -17 268 -41
352 -8 29 -17 63 -19 76 -14 61 -82 227 -131 321 -76 144 -127 212 -265 351
-84 85 -188 170 -209 170 -5 0 -10 4 -10 9 0 27 -296 150 -400 166 -25 4 -56
9 -70 11 -32 6 -267 14 -271 9z"/>
</g>
</svg>
